<svg xmlns="http://www.w3.org/2000/svg" viewBox="0 0 1200 900" role="img" aria-labelledby="title desc"><title id="title">Strykere og klang</title><desc id="desc">Abstrakt illustrasjon inspirert av strykeinstrumenter.</desc><rect width="1200" height="900" fill="#fbfaf6"/><circle cx="960" cy="160" r="260" fill="#d9c394" opacity="0.42"/><circle cx="210" cy="770" r="320" fill="#e7edf2" opacity="0.9"/><g fill="none" stroke-linecap="round"><path d="M170 760 C330 520 350 310 565 260 C785 208 960 420 860 620 C745 850 420 870 302 718 C215 606 286 438 450 420 C598 404 694 554 622 680 C570 772 410 756 380 650" stroke="#121b2c" stroke-width="18"/><path d="M696 138 L382 810" stroke="#b6975a" stroke-width="5"/><path d="M746 156 L432 828" stroke="#b6975a" stroke-width="3" opacity="0.7"/><path d="M610 258 C660 420 650 565 590 716" stroke="#121b2c" stroke-width="4" opacity="0.45"/></g></svg>
