<svg xmlns="http://www.w3.org/2000/svg" viewBox="0 0 1200 900" role="img" aria-labelledby="title desc"><title id="title">Dirigentbevegelse</title><desc id="desc">Abstrakte linjer som viser musikalsk bevegelse.</desc><rect width="1200" height="900" fill="#f6f1e8"/><path d="M0 730 C200 660 360 735 520 648 C710 545 823 538 1200 610 L1200 900 L0 900 Z" fill="#101826"/><path d="M145 530 C330 275 530 230 700 360 C835 463 982 423 1085 245" fill="none" stroke="#101826" stroke-width="10" stroke-linecap="round"/><path d="M155 590 C365 410 560 430 748 548 C896 642 1018 596 1130 445" fill="none" stroke="#b6975a" stroke-width="6" stroke-linecap="round"/><path d="M222 248 C390 150 535 166 668 255" fill="none" stroke="#9eb9ca" stroke-width="7" stroke-linecap="round" opacity="0.95"/><g fill="#b6975a"><circle cx="145" cy="530" r="16"/><circle cx="1085" cy="245" r="11"/><circle cx="1130" cy="445" r="10"/></g></svg>
