<svg xmlns="http://www.w3.org/2000/svg" viewBox="0 0 900 900" role="img" aria-labelledby="title desc"><title id="title">Strykerillustrasjon</title><desc id="desc">Minimal illustrasjon inspirert av strykeinstrumenter og noter.</desc><rect width="900" height="900" rx="70" fill="#fbfaf6"/><circle cx="680" cy="170" r="190" fill="#dfeaf1"/><circle cx="270" cy="690" r="250" fill="#eadcc2"/><path d="M455 104c-115 112-151 245-107 398 25 88 6 160-57 217" fill="none" stroke="#101826" stroke-width="24" stroke-linecap="round"/><path d="M558 134c-133 145-163 281-89 407 45 77 35 145-31 204" fill="none" stroke="#a8844c" stroke-width="18" stroke-linecap="round"/><g stroke="#101826" stroke-width="6" opacity=".25"><path d="M170 158h590"/><path d="M170 234h590"/><path d="M170 310h590"/><path d="M170 386h590"/><path d="M170 462h590"/></g><g fill="#101826"><circle cx="278" cy="385" r="28"/><path d="M306 385V249" stroke="#101826" stroke-width="10" stroke-linecap="round"/><circle cx="635" cy="309" r="28"/><path d="M663 309V173" stroke="#101826" stroke-width="10" stroke-linecap="round"/></g><path d="M214 723c151 58 309 59 474 4" fill="none" stroke="#101826" stroke-width="12" stroke-linecap="round" opacity=".5"/></svg>
