<svg xmlns="http://www.w3.org/2000/svg" viewBox="0 0 1200 1500" role="img" aria-labelledby="title desc"><title id="title">Abstrakt sceneillustrasjon</title><desc id="desc">Minimal scene med varmt konsertlys i beige, blått og sort.</desc><defs><linearGradient id="bg" x1="0" x2="1" y1="0" y2="1"><stop offset="0" stop-color="#fbf7ef"/><stop offset="0.52" stop-color="#eef3f7"/><stop offset="1" stop-color="#cdb889"/></linearGradient><radialGradient id="light" cx="50%" cy="23%" r="62%"><stop offset="0" stop-color="#ffffff" stop-opacity="0.95"/><stop offset="0.45" stop-color="#f3dec0" stop-opacity="0.62"/><stop offset="1" stop-color="#102034" stop-opacity="0"/></radialGradient></defs><rect width="1200" height="1500" fill="url(#bg)"/><circle cx="600" cy="330" r="470" fill="url(#light)"/><path d="M0 1110 C270 1020 430 1090 610 1045 C815 992 970 1010 1200 920 L1200 1500 L0 1500 Z" fill="#101826"/><path d="M95 1190 C330 1140 485 1210 650 1165 C815 1120 980 1128 1110 1080" fill="none" stroke="#c8a96b" stroke-width="3" opacity="0.55"/><path d="M340 1028 C392 995 458 1004 514 1050" fill="none" stroke="#101826" stroke-width="20" stroke-linecap="round"/><path d="M704 1025 C766 982 848 1000 900 1057" fill="none" stroke="#101826" stroke-width="20" stroke-linecap="round"/><g fill="none" stroke="#ffffff" stroke-opacity="0.34"><path d="M240 190 L455 980"/><path d="M950 160 L742 975"/><path d="M600 70 L600 1040"/></g></svg>
