<svg xmlns="http://www.w3.org/2000/svg" viewBox="0 0 900 1200" role="img" aria-labelledby="title desc"><title id="title">Asker Symfoniorkester scene</title><desc id="desc">Abstrakt sceneillustrasjon med varmt lys, podium og orkesterformer.</desc><defs><linearGradient id="bg" x1="0" x2="1" y1="0" y2="1"><stop offset="0" stop-color="#fff8ec"/><stop offset=".5" stop-color="#eadcc2"/><stop offset="1" stop-color="#dfeaf1"/></linearGradient><radialGradient id="glow" cx="50%" cy="20%" r="70%"><stop offset="0" stop-color="#fff" stop-opacity=".95"/><stop offset=".45" stop-color="#f3d99f" stop-opacity=".55"/><stop offset="1" stop-color="#a8844c" stop-opacity="0"/></radialGradient></defs><rect width="900" height="1200" fill="url(#bg)"/><circle cx="450" cy="250" r="360" fill="url(#glow)"/><path d="M120 785c150-92 286-138 408-138 91 0 175 26 252 78v248H120z" fill="#101826" opacity=".93"/><path d="M155 842c115-50 236-74 363-74 100 0 188 16 265 49" fill="none" stroke="#a8844c" stroke-width="10" stroke-linecap="round" opacity=".75"/><g fill="#fbfaf6" opacity=".94"><circle cx="250" cy="736" r="23"/><circle cx="344" cy="713" r="20"/><circle cx="444" cy="704" r="24"/><circle cx="548" cy="715" r="19"/><circle cx="653" cy="744" r="22"/></g><g stroke="#101826" stroke-width="8" stroke-linecap="round" opacity=".74"><path d="M235 760v96"/><path d="M344 737v103"/><path d="M444 730v118"/><path d="M548 738v102"/><path d="M653 767v89"/></g><path d="M450 178v420" stroke="#101826" stroke-width="12" stroke-linecap="round" opacity=".82"/><path d="M450 335c-72-65-117-95-170-97" stroke="#101826" stroke-width="8" fill="none" stroke-linecap="round" opacity=".5"/><path d="M450 335c78-70 130-102 196-99" stroke="#101826" stroke-width="8" fill="none" stroke-linecap="round" opacity=".5"/><path d="M320 1025h260" stroke="#a8844c" stroke-width="18" stroke-linecap="round" opacity=".8"/></svg>
